# xmcd
# 
# Track frame offsets:
#     150
#     18167
#     41312
#     58475
#     80527
#     105705
#     124652
#     144367
#     166515
#     181982
#     200195
#     222807
#     243365
# 
# Disc length: 3507
# 
# Revision: 5
# Processed by: cddbd v1.5.2PL0 Copyright (c) Steve Scherf et al.
# Submitted via: BonkEnc v1.0
# 
DISCID=ad0db10d
DTITLE=Fagner - Ao Vivo Vol 2
DYEAR=2000
DGENRE=MPB
TTITLE0=Sinal Fechado
TTITLE1=Noturno
TTITLE2=Fanatismo
TTITLE3=Jura Secreta
TTITLE4=Canteiros (Na Hora do Almoço/Aguas de Março)
TTITLE5=Borbulhas de Amor (Tenho um Coraçao/Borbujas de Amor)
TTITLE6=Mucuripe
TTITLE7=Espumas ao Vento
TTITLE8=Ai Que Saudade D'oce
TTITLE9=Lembrança de Um Beijo II
TTITLE10=Pedras Que Cantam
TTITLE11=Ultimo Trem
TTITLE12=Chama Quente
EXTD=YEAR: 2000
EXTT0=
EXTT1=
EXTT2=
EXTT3=
EXTT4=
EXTT5=
EXTT6=
EXTT7=
EXTT8=
EXTT9=
EXTT10=
EXTT11=
EXTT12=
PLAYORDER=
